<?xml version="1.0" encoding="UTF-8"?><svg xmlns="http://www.w3.org/2000/svg" xmlns:xlink="http://www.w3.org/1999/xlink" fill-rule="evenodd" height="64.2" preserveAspectRatio="xMidYMid meet" version="1.0" viewBox="0.6 -0.1 62.9 64.2" width="62.9" zoomAndPan="magnify">
 <g id="change1_1"><path d="m20.03 19.753c0.74-0.753 1.282-1.462 1.63-2.126l8.714-16.19c0.362-0.664 0.435-1.1 0.217-1.307-0.203-0.22-0.637-0.148-1.304 0.22l-15.843 8.906c-0.666 0.384-1.355 0.938-2.064 1.66-0.74 0.753-1.282 1.462-1.63 2.126l-8.736 16.146c-0.377 0.664-0.456 1.107-0.24 1.33 0.203 0.207 0.637 0.125 1.304-0.244l15.885-8.86c0.666-0.384 1.355-0.938 2.064-1.66z" fill="#9823c6"/></g>
 <g id="change2_1"><path d="m56.806 25.818c-0.116-0.856-0.442-1.558-0.978-2.104l-15.624-15.914c-0.536-0.546-1.116-0.775-1.738-0.687-0.637 0.09-1.137 0.472-1.5 1.152l-8.736 16.157c-0.362 0.664-0.478 1.432-0.348 2.303 0.116 0.856 0.435 1.558 0.956 2.104l15.624 15.9c0.522 0.546 1.1 0.768 1.738 0.664 0.637-0.09 1.137-0.465 1.5-1.13l8.736-16.145c0.362-0.68 0.485-1.447 0.37-2.303z" fill="#ffc34e"/></g>
 <g id="change3_1"><path d="m38.5 53.15c0.1-0.65-0.116-1.24-0.652-1.772l-15.613-15.924c-0.536-0.532-1.224-0.856-2.064-0.974-0.855-0.133-1.608-0.015-2.26 0.354l-15.863 8.903c-0.652 0.37-1.02 0.878-1.108 1.528-0.1 0.635 0.116 1.225 0.652 1.772l15.624 15.923c0.536 0.546 1.224 0.878 2.064 0.997s1.594-0.007 2.26-0.376l15.842-8.903c0.652-0.37 1.02-0.878 1.108-1.528z" fill="#ff3e3c"/></g>
 <g id="change4_1"><path d="m63.048 18.735c0.087-0.65-0.13-1.248-0.652-1.794l-15.624-15.901c-0.522-0.547-1.202-0.88-2.042-0.997-0.855-0.118-1.608 0.007-2.26 0.376l-15.864 8.881c-0.666 0.37-1.043 0.878-1.13 1.528s0.138 1.248 0.674 1.794l15.624 15.923c0.536 0.546 1.224 0.878 2.064 0.997s1.586-0.007 2.238-0.376l15.842-8.903c0.666-0.37 1.043-0.878 1.13-1.528z" fill="#26c4ff"/></g>
 <g id="change5_1"><path d="m63.222 33.416c-0.203-0.22-0.637-0.148-1.304 0.22l-15.863 8.86c-0.666 0.384-1.362 0.938-2.086 1.66-0.724 0.753-1.268 1.462-1.63 2.126l-8.692 16.19c-0.362 0.664-0.442 1.107-0.24 1.33 0.217 0.22 0.652 0.14 1.304-0.244l15.842-8.903c0.652-0.37 1.347-0.923 2.086-1.66 0.7-0.738 1.253-1.447 1.63-2.126l8.736-16.145c0.362-0.664 0.435-1.1 0.217-1.307z" fill="#fe0fa6"/></g>
 <g id="change6_1"><path d="m35.853 39.578c0.362-0.664 0.485-1.432 0.37-2.303-0.116-0.856-0.442-1.558-0.978-2.104l-15.625-15.923c-0.536-0.546-1.116-0.768-1.738-0.664-0.637 0.09-1.137 0.465-1.5 1.13l-8.735 16.166c-0.362 0.68-0.478 1.447-0.348 2.303 0.116 0.856 0.435 1.558 0.956 2.104l15.624 15.9c0.522 0.546 1.1 0.775 1.738 0.687s1.137-0.472 1.5-1.152z" fill="#98d843"/></g>
</svg>